<svg xmlns="http://www.w3.org/2000/svg" width="1024" height="1024" viewBox="0 0 1024 1024" role="img"><title>Isolinear Memory lattice</title><g transform="translate(-170.667 -170.667) scale(1.33333)"><path d="M300 507C300 390 394 300 510 300C624 300 718 390 718 507C718 624 624 718 510 718C394 718 300 624 300 507Z" fill="none" stroke="#DCE5F1" stroke-width="38" />
  <path d="M374 369C420 326 470 304 520 301" fill="none" stroke="#168DAB" stroke-width="48" stroke-linecap="round" />
  <path d="M641 344C690 377 716 431 718 496" fill="none" stroke="#526BD8" stroke-width="48" stroke-linecap="round" />
  <path d="M675 628C629 691 557 719 488 717" fill="none" stroke="#6B4DC7" stroke-width="48" stroke-linecap="round" />
  <path d="M359 650C321 610 302 558 300 508" fill="none" stroke="#0D9F94" stroke-width="48" stroke-linecap="round" />
  <path d="M418 418L512 510L626 415M512 510L512 642" fill="none" stroke="#1C4B69" stroke-width="40" stroke-linecap="round" stroke-linejoin="round" />
  <circle cx="418" cy="418" r="55" fill="#19B6B2" />
  <circle cx="626" cy="415" r="55" fill="#627BF0" />
  <circle cx="512" cy="642" r="55" fill="#9270E8" />
  <circle cx="512" cy="510" r="88" fill="#236886" />
  <circle cx="512" cy="510" r="39" fill="#FFFFFF" />
</g></svg>
